<mxfile host="app.diagrams.net" modified="2020-12-15T09:45:10.629Z" agent="5.0 (Macintosh; Intel Mac OS X 10_13_6) AppleWebKit/605.1.15 (KHTML, like Gecko) Version/13.1.2 Safari/605.1.15" etag="isn4gAFqtlVCblsqW7RS" version="14.0.1" type="github">
  <diagram id="ktsGYNsk4kY88abPZ4qp" name="Page-1">
    <mxGraphModel dx="786" dy="473" grid="1" gridSize="10" guides="1" tooltips="1" connect="1" arrows="1" fold="1" page="1" pageScale="1" pageWidth="850" pageHeight="1100" math="0" shadow="0">
      <root>
        <mxCell id="0" />
        <mxCell id="1" parent="0" />
        <mxCell id="r_f2xXJb9P_Ozzs2txuN-1" value="user" style="shape=umlActor;verticalLabelPosition=bottom;verticalAlign=top;html=1;outlineConnect=0;" vertex="1" parent="1">
          <mxGeometry x="230" y="170" width="30" height="60" as="geometry" />
        </mxCell>
        <mxCell id="r_f2xXJb9P_Ozzs2txuN-2" value="سیستم (صفحه نمایش)" style="rounded=0;whiteSpace=wrap;html=1;" vertex="1" parent="1">
          <mxGeometry x="550" y="170" width="120" height="60" as="geometry" />
        </mxCell>
        <mxCell id="r_f2xXJb9P_Ozzs2txuN-3" value="User" style="rounded=0;whiteSpace=wrap;html=1;" vertex="1" parent="1">
          <mxGeometry x="550" y="360" width="120" height="60" as="geometry" />
        </mxCell>
        <mxCell id="r_f2xXJb9P_Ozzs2txuN-4" value="" style="endArrow=none;html=1;" edge="1" parent="1">
          <mxGeometry width="50" height="50" relative="1" as="geometry">
            <mxPoint x="280" y="200" as="sourcePoint" />
            <mxPoint x="550" y="199.5" as="targetPoint" />
          </mxGeometry>
        </mxCell>
        <mxCell id="r_f2xXJb9P_Ozzs2txuN-5" value="" style="endArrow=none;html=1;exitX=0.5;exitY=0;exitDx=0;exitDy=0;entryX=0.5;entryY=1;entryDx=0;entryDy=0;" edge="1" parent="1" source="r_f2xXJb9P_Ozzs2txuN-3" target="r_f2xXJb9P_Ozzs2txuN-2">
          <mxGeometry width="50" height="50" relative="1" as="geometry">
            <mxPoint x="380" y="270" as="sourcePoint" />
            <mxPoint x="430" y="220" as="targetPoint" />
          </mxGeometry>
        </mxCell>
        <mxCell id="r_f2xXJb9P_Ozzs2txuN-6" value="1: Login() -&amp;gt;" style="text;html=1;align=center;verticalAlign=middle;resizable=0;points=[];autosize=1;" vertex="1" parent="1">
          <mxGeometry x="310" y="170" width="80" height="20" as="geometry" />
        </mxCell>
        <mxCell id="r_f2xXJb9P_Ozzs2txuN-7" value="2: Enter username and password () -&amp;gt;" style="text;html=1;align=center;verticalAlign=middle;resizable=0;points=[];autosize=1;" vertex="1" parent="1">
          <mxGeometry x="310" y="150" width="220" height="20" as="geometry" />
        </mxCell>
        <mxCell id="r_f2xXJb9P_Ozzs2txuN-8" value="3: Click Login() -&amp;gt;" style="text;html=1;align=center;verticalAlign=middle;resizable=0;points=[];autosize=1;" vertex="1" parent="1">
          <mxGeometry x="310" y="130" width="110" height="20" as="geometry" />
        </mxCell>
        <mxCell id="r_f2xXJb9P_Ozzs2txuN-9" value="4: Search in DB() -&amp;gt;" style="text;html=1;align=center;verticalAlign=middle;resizable=0;points=[];autosize=1;rotation=90;" vertex="1" parent="1">
          <mxGeometry x="565" y="290" width="120" height="20" as="geometry" />
        </mxCell>
      </root>
    </mxGraphModel>
  </diagram>
</mxfile>
